<svg xmlns="http://www.w3.org/2000/svg" viewBox="0 0 512 512" width="512" height="512">
  <defs>
    <linearGradient id="sMain" x1="0%" y1="0%" x2="100%" y2="100%">
      <stop offset="0%" stop-color="#ff6b9d"/>
      <stop offset="40%" stop-color="#f25a8a"/>
      <stop offset="100%" stop-color="#c44569"/>
    </linearGradient>
    <linearGradient id="sHighlight" x1="20%" y1="10%" x2="80%" y2="90%">
      <stop offset="0%" stop-color="#ffffff" stop-opacity="0.4"/>
      <stop offset="100%" stop-color="#ffffff" stop-opacity="0"/>
    </linearGradient>
  </defs>

  <!-- White background -->
  <rect width="512" height="512" rx="108" fill="#ffffff"/>

  <!-- Main S - back shadow layer -->
  <path d="M 385 78 Q 418 78 418 118 Q 418 188 352 210 Q 280 235 280 285 Q 280 350 345 372 Q 395 388 395 435 Q 395 475 355 475 L 157 475 Q 117 475 117 435 Q 117 365 182 342 Q 255 315 255 260 Q 255 195 190 172 Q 140 155 140 110 Q 140 78 175 78 Z" 
        fill="#c44569" opacity="0.25"/>

  <!-- Main S body -->
  <path d="M 380 70 Q 415 70 415 115 Q 415 190 345 215 Q 270 242 270 295 Q 270 365 340 390 Q 390 405 390 450 Q 390 490 350 490 L 162 490 Q 122 490 122 450 Q 122 375 192 350 Q 270 320 270 265 Q 270 195 195 170 Q 145 155 145 110 Q 145 70 180 70 Z" 
        fill="url(#sMain)"/>

  <!-- Highlight layer -->
  <path d="M 380 70 Q 415 70 415 115 Q 415 190 345 215 Q 270 242 270 295 Q 270 365 340 390 Q 390 405 390 450 Q 390 490 350 490 L 162 490 Q 122 490 122 450 Q 122 375 192 350 Q 270 320 270 265 Q 270 195 195 170 Q 145 155 145 110 Q 145 70 180 70 Z" 
        fill="url(#sHighlight)"/>

  <!-- Inner white holes to form proper S -->
  <!-- Top hole -->
  <path d="M 200 135 Q 235 145 235 175 Q 235 205 200 215 Q 165 205 165 175 Q 165 145 200 135 Z" fill="#ffffff"/>
  
  <!-- Bottom hole -->
  <path d="M 277 305 Q 312 315 312 345 Q 312 375 277 385 Q 242 375 242 345 Q 242 315 277 305 Z" fill="#ffffff"/>
</svg>