<?xml version="1.0" encoding="UTF-8"?>
<svg xmlns="http://www.w3.org/2000/svg" xmlns:xlink="http://www.w3.org/1999/xlink" width="800" height="230" viewBox="0 0 800 230">
<defs>
<linearGradient id="linear-pattern-0" gradientUnits="userSpaceOnUse" x1="0" y1="0" x2="1" y2="1" gradientTransform="matrix(542.325195, 0, 0, 143.706055, 258.349121, 180)">
<stop offset="0" stop-color="rgb(90.980392%, 86.27451%, 66.666667%)" stop-opacity="1"/>
<stop offset="0.52" stop-color="rgb(76.862745%, 69.019608%, 50.196078%)" stop-opacity="1"/>
<stop offset="1" stop-color="rgb(54.117647%, 49.019608%, 32.941176%)" stop-opacity="1"/>
</linearGradient>
<linearGradient id="linear-pattern-1" gradientUnits="userSpaceOnUse" x1="0" y1="0" x2="1" y2="1" gradientTransform="matrix(542.325195, 0, 0, 143.706055, 258.349121, 180)">
<stop offset="0" stop-color="rgb(90.980392%, 86.27451%, 66.666667%)" stop-opacity="1"/>
<stop offset="0.52" stop-color="rgb(76.862745%, 69.019608%, 50.196078%)" stop-opacity="1"/>
<stop offset="1" stop-color="rgb(54.117647%, 49.019608%, 32.941176%)" stop-opacity="1"/>
</linearGradient>
<linearGradient id="linear-pattern-2" gradientUnits="userSpaceOnUse" x1="0" y1="0" x2="1" y2="1" gradientTransform="matrix(542.325195, 0, 0, 143.706055, 258.349121, 180)">
<stop offset="0" stop-color="rgb(90.980392%, 86.27451%, 66.666667%)" stop-opacity="1"/>
<stop offset="0.52" stop-color="rgb(76.862745%, 69.019608%, 50.196078%)" stop-opacity="1"/>
<stop offset="1" stop-color="rgb(54.117647%, 49.019608%, 32.941176%)" stop-opacity="1"/>
</linearGradient>
<linearGradient id="linear-pattern-3" gradientUnits="userSpaceOnUse" x1="0" y1="0" x2="1" y2="1" gradientTransform="matrix(542.325195, 0, 0, 143.706055, 258.349121, 180)">
<stop offset="0" stop-color="rgb(90.980392%, 86.27451%, 66.666667%)" stop-opacity="1"/>
<stop offset="0.52" stop-color="rgb(76.862745%, 69.019608%, 50.196078%)" stop-opacity="1"/>
<stop offset="1" stop-color="rgb(54.117647%, 49.019608%, 32.941176%)" stop-opacity="1"/>
</linearGradient>
</defs>
<path fill-rule="nonzero" fill="url(#linear-pattern-0)" d="M 135.792969 173.3125 L 135.792969 140.484375 L 147.574219 140.484375 C 149.363281 150.871094 153.597656 158.632812 160.277344 163.765625 C 166.964844 168.902344 176.214844 171.46875 188.027344 171.46875 C 197.609375 171.46875 204.90625 169.648438 209.917969 166 C 214.925781 162.34375 217.433594 156.992188 217.433594 149.9375 C 217.433594 144.375 215.730469 140.046875 212.324219 136.953125 C 208.925781 133.859375 201.910156 130.984375 191.277344 128.328125 L 170.496094 123.21875 C 156.941406 119.761719 147.417969 114.953125 141.917969 108.796875 C 136.417969 102.640625 133.667969 93.875 133.667969 82.5 C 133.667969 68.773438 138.222656 58.089844 147.339844 50.453125 C 156.464844 42.808594 169.253906 38.984375 185.714844 38.984375 C 193.808594 38.984375 202.230469 39.667969 210.980469 41.03125 C 219.738281 42.386719 228.816406 44.421875 238.214844 47.140625 L 238.214844 77.765625 L 226.433594 77.765625 C 224.640625 68.234375 220.714844 61.261719 214.652344 56.84375 C 208.589844 52.417969 199.957031 50.203125 188.761719 50.203125 C 179.613281 50.203125 172.703125 51.796875 168.027344 54.984375 C 163.359375 58.171875 161.027344 62.921875 161.027344 69.234375 C 161.027344 74.984375 162.636719 79.359375 165.855469 82.359375 C 169.074219 85.359375 176.957031 88.464844 189.511719 91.671875 L 210.292969 96.78125 C 223.15625 100 232.480469 105.011719 238.261719 111.8125 C 244.042969 118.617188 246.933594 127.984375 246.933594 139.921875 C 246.933594 153.902344 242.109375 164.527344 232.464844 171.796875 C 222.816406 179.058594 208.625 182.6875 189.886719 182.6875 C 180.855469 182.6875 171.886719 181.910156 162.980469 180.359375 C 154.074219 178.820312 145.011719 176.46875 135.792969 173.3125 Z M 135.792969 173.3125 "/>
<path fill-rule="nonzero" fill="url(#linear-pattern-1)" d="M 329.800781 172.203125 C 336.726562 172.203125 341.597656 169.234375 344.410156 163.296875 C 347.230469 157.359375 348.644531 146.476562 348.644531 130.640625 C 348.644531 114.808594 347.246094 103.9375 344.457031 98.03125 C 341.675781 92.125 336.789062 89.171875 329.800781 89.171875 C 322.808594 89.171875 317.894531 92.15625 315.050781 98.125 C 312.207031 104.09375 310.785156 114.933594 310.785156 130.640625 C 310.785156 146.351562 312.207031 157.203125 315.050781 163.203125 C 317.894531 169.203125 322.808594 172.203125 329.800781 172.203125 Z M 329.800781 182.6875 C 312.425781 182.6875 298.804688 178.070312 288.941406 168.828125 C 279.074219 159.578125 274.144531 146.851562 274.144531 130.640625 C 274.144531 114.382812 279.074219 101.65625 288.941406 92.46875 C 298.804688 83.28125 312.425781 78.6875 329.800781 78.6875 C 347.246094 78.6875 360.886719 83.28125 370.722656 92.46875 C 380.554688 101.65625 385.472656 114.382812 385.472656 130.640625 C 385.472656 146.851562 380.539062 159.578125 370.675781 168.828125 C 360.808594 178.070312 347.183594 182.6875 329.800781 182.6875 Z M 329.800781 182.6875 "/>
<path fill-rule="nonzero" fill="url(#linear-pattern-2)" d="M 407.578125 180 L 407.578125 168.78125 L 421.578125 168.78125 L 421.578125 92.609375 L 407.578125 92.609375 L 407.578125 81.375 L 454.421875 81.375 L 454.421875 95.296875 C 458.378906 89.421875 462.894531 85.1875 467.96875 82.59375 C 473.039062 79.992188 479.441406 78.6875 487.171875 78.6875 C 498.242188 78.6875 506.609375 81.953125 512.265625 88.484375 C 517.921875 95.007812 520.75 104.605469 520.75 117.28125 L 520.75 168.78125 L 534.859375 168.78125 L 534.859375 180 L 475.953125 180 L 475.953125 168.78125 L 487.921875 168.78125 L 487.921875 116.359375 C 487.921875 108.007812 486.851562 102.210938 484.71875 98.96875 C 482.582031 95.71875 478.882812 94.09375 473.625 94.09375 C 467.007812 94.09375 462.15625 96.523438 459.0625 101.375 C 455.96875 106.230469 454.421875 113.945312 454.421875 124.515625 L 454.421875 168.78125 L 466.484375 168.78125 L 466.484375 180 Z M 407.578125 180 "/>
<path fill-rule="nonzero" fill="url(#linear-pattern-3)" d="M 610.667969 172.203125 C 617.59375 172.203125 622.464844 169.234375 625.277344 163.296875 C 628.097656 157.359375 629.511719 146.476562 629.511719 130.640625 C 629.511719 114.808594 628.113281 103.9375 625.324219 98.03125 C 622.542969 92.125 617.65625 89.171875 610.667969 89.171875 C 603.675781 89.171875 598.761719 92.15625 595.917969 98.125 C 593.074219 104.09375 591.652344 114.933594 591.652344 130.640625 C 591.652344 146.351562 593.074219 157.203125 595.917969 163.203125 C 598.761719 169.203125 603.675781 172.203125 610.667969 172.203125 Z M 610.667969 182.6875 C 593.292969 182.6875 579.671875 178.070312 569.808594 168.828125 C 559.941406 159.578125 555.011719 146.851562 555.011719 130.640625 C 555.011719 114.382812 559.941406 101.65625 569.808594 92.46875 C 579.671875 83.28125 593.292969 78.6875 610.667969 78.6875 C 628.113281 78.6875 641.753906 83.28125 651.589844 92.46875 C 661.421875 101.65625 666.339844 114.382812 666.339844 130.640625 C 666.339844 146.851562 661.40625 159.578125 651.542969 168.828125 C 641.675781 178.070312 628.050781 182.6875 610.667969 182.6875 Z M 610.667969 182.6875 "/>
</svg>
